# xmcd CD database file generated by Grip 2.94
# 
# Track frame offsets:
#       150
#       17935
#       35460
#       53167
#       64545
#       78332
#       92895
#       108067
#       128945
#       145492
#       164282
#       176545
# 
# Disc length: 2584 seconds
# 
# Revision: 3
# Processed by: cddbd v1.4b41PL1 Copyright (c) Steve Scherf et al.
# Submitted via: Grip 2.94
# 
DISCID=9b0a160c
DTITLE=Dolly Varden - The Dumbest Magnets
DYEAR=1900
DGENRE=
TTITLE0=Apple Doll
TTITLE1=The Thing You Love Is Killing You
TTITLE2=The Dumbest Magnets
TTITLE3=Second Chance
TTITLE4=Progress Note
TTITLE5=I Come To You
TTITLE6=Balcony
TTITLE7=Be A Part
TTITLE8=Along For The Ride
TTITLE9=Too Good To Believe
TTITLE10=Some Sequined Angel
TTITLE11=Simple Pleasure
EXTD=
EXTT0=
EXTT1=
EXTT2=
EXTT3=
EXTT4=
EXTT5=
EXTT6=
EXTT7=
EXTT8=
EXTT9=
EXTT10=
EXTT11=
PLAYORDER=
